<svg width="120" height="100" viewBox="0 0 120 100" fill="none" xmlns="http://www.w3.org/2000/svg">
  <g id="Frame 1">
    <g id="light-group">
      <path id="light1" opacity="0.7"
        d="M40.1268 47.987C41.4559 48.7641 41.4453 50.6886 40.1078 51.4511L13.7751 66.4623C12.4376 67.2248 10.7762 66.2534 10.7846 64.7138L10.9509 34.4034C10.9593 32.8638 12.6312 31.9107 13.9603 32.6878L40.1268 47.987Z"
        fill="#47E9C2" fill-opacity="0.44" />
    </g>
    <g id="dark-group">
      <path id="dark1" opacity="0.7"
        d="M40.1268 47.987C41.4559 48.7641 41.4453 50.6886 40.1078 51.4511L13.7751 66.4623C12.4376 67.2248 10.7762 66.2534 10.7846 64.7138L10.9509 34.4034C10.9593 32.8638 12.6312 31.9107 13.9603 32.6878L40.1268 47.987Z"
        fill="#3E17DC" />
      <path id="dark2" opacity="0.7"
        d="M57.1268 47.987C58.4559 48.7641 58.4453 50.6886 57.1078 51.4511L30.7751 66.4623C29.4376 67.2248 27.7762 66.2534 27.7846 64.7138L27.9509 34.4034C27.9593 32.8638 29.6312 31.9107 30.9603 32.6878L57.1268 47.987Z"
        fill="#3E17DC" />
    </g>
  </g>
</svg>